<?xml version="1.0" encoding="UTF-8" standalone="no"?>
<svg
   xmlns:dc="http://purl.org/dc/elements/1.1/"
   xmlns:cc="http://creativecommons.org/ns#"
   xmlns:rdf="http://www.w3.org/1999/02/22-rdf-syntax-ns#"
   xmlns:svg="http://www.w3.org/2000/svg"
   xmlns="http://www.w3.org/2000/svg"
   xmlns:sodipodi="http://sodipodi.sourceforge.net/DTD/sodipodi-0.dtd"
   xmlns:inkscape="http://www.inkscape.org/namespaces/inkscape"
   version="1.1"
   id="svg2"
   viewBox="0 0 999.99999 999.99999"
   height="1000"
   width="1000"
   inkscape:version="0.91 r13725"
   sodipodi:docname="A.svg">
  <sodipodi:namedview
     pagecolor="#ffffff"
     bordercolor="#666666"
     borderopacity="1"
     objecttolerance="10"
     gridtolerance="10"
     guidetolerance="10"
     inkscape:pageopacity="0"
     inkscape:pageshadow="2"
     inkscape:window-width="1154"
     inkscape:window-height="826"
     id="namedview3386"
     showgrid="false"
     inkscape:zoom="1"
     inkscape:cx="480.76481"
     inkscape:cy="545.97835"
     inkscape:window-x="0"
     inkscape:window-y="0"
     inkscape:window-maximized="0"
     inkscape:current-layer="svg2" />
  <defs
     id="defs4" />
  <metadata
     id="metadata7">
    <rdf:RDF>
      <cc:Work
         rdf:about="">
        <dc:format>image/svg+xml</dc:format>
        <dc:type
           rdf:resource="http://purl.org/dc/dcmitype/StillImage" />
        <dc:title />
      </cc:Work>
    </rdf:RDF>
  </metadata>
  <g
     transform="translate(-31.413613,-43.636268)"
     id="layer1">
    <path
       style="fill:#000000"
       d="M 188.21839,877.73338 C 123.88119,860.29184 98.791552,788.50793 88.375405,729.47128 72.771315,681.18237 118.06732,655.01324 144.6353,622.99196 c 33.87371,-43.64414 15.9023,29.38061 23.58675,51.35445 11.5168,47.13659 37.81659,100.60082 87.40936,115.81112 33.34217,6.79199 52.45259,-25.98466 59.60427,-53.38895 24.00995,-63.98259 4.71065,-132.21596 8.94381,-198.22941 0.5575,-66.98103 -6.44261,-134.25463 -2.76045,-201.05859 0.55938,-41.0002 24.08728,-73.93178 53.99102,-99.42672 23.91667,-31.52649 50.79751,-60.68319 78.60274,-88.69018 33.09845,-20.7768 75.88907,-11.03755 113.2181,-17.69172 34.33113,-1.72777 73.1106,-3.47611 103.37711,-3.17124 53.52895,-14.18865 35.28615,50.59198 35.31585,80.92526 -0.19377,99.72228 5.58672,201.06006 37.82649,296.21522 16.35846,72.27084 52.5965,137.65291 83.27348,204.49044 13.24086,37.98135 59.45068,70.17602 38.74368,112.82932 -9.43864,21.09752 -12.3846,73.51168 -37.95059,35.16428 C 773.44568,815.60572 734.19639,756.32087 704.21998,694.82558 677.54663,633.67101 659.19297,569.16246 644.1988,504.43682 c -24.05096,-31.1411 -37.7349,41.85341 -72.87011,27.09092 -29.28366,-9.63555 -57.25654,-28.82429 -89.43052,-32.05733 -27.91776,-2.49334 -75.44962,-7.26523 -82.14506,28.84955 2.67037,36.64758 5.91839,73.7169 -4.66245,109.72045 -9.02196,44.2849 -36.12294,80.83224 -66.10176,113.38789 -35.98749,42.83448 -70.21063,88.26342 -115.40325,121.92144 -7.51069,4.58822 -16.77062,6.29435 -25.36726,4.38364 z m 32.33776,-105.91199 c -1.55384,-1.41481 0.21886,3.52265 0,0 z m -15.59188,-17.37122 c -0.60352,-1.744 -1.03023,1.78117 0,0 z M 403.97661,497.21803 c 27.68273,-34.42956 57.15706,-79.00278 106.47301,-80.141 42.90619,-2.62934 84.60074,11.47188 123.25504,28.83327 -7.84716,-75.88642 -11.35112,-152.52973 -4.5981,-228.64269 -25.73953,-20.0292 -63.41991,-2.52352 -94.33094,-7.4742 -42.96431,1.82999 -85.95975,5.52826 -128.21555,13.7422 -18.76648,56.58409 -6.56774,116.92139 -8.20177,175.17113 3.37606,29.61592 -4.91798,81.57941 5.61831,98.51129 z"
       id="path3401"
       inkscape:connector-curvature="0" />
  </g>
</svg>
