<?xml version="1.0" encoding="UTF-8" standalone="no"?>
<svg
   xmlns:dc="http://purl.org/dc/elements/1.1/"
   xmlns:cc="http://creativecommons.org/ns#"
   xmlns:rdf="http://www.w3.org/1999/02/22-rdf-syntax-ns#"
   xmlns:svg="http://www.w3.org/2000/svg"
   xmlns="http://www.w3.org/2000/svg"
   version="1.1"
   id="svg2"
   viewBox="0 0 1000 1000"
   height="1000"
   width="1000">
  <defs
     id="defs4" />
  <metadata
     id="metadata7">
    <rdf:RDF>
      <cc:Work
         rdf:about="">
        <dc:format>image/svg+xml</dc:format>
        <dc:type
           rdf:resource="http://purl.org/dc/dcmitype/StillImage" />
        <dc:title></dc:title>
      </cc:Work>
    </rdf:RDF>
  </metadata>
  <g
     transform="translate(0,-52.362161)"
     id="layer1">
    <path
       id="path3400"
       d="m 537.22563,844.58754 c -54.84617,-4.98928 -90.5506,-55.12812 -144.38825,-63.99831 -40.90742,-16.51808 -81.14001,3.93893 -114.24225,26.73899 -13.89595,9.21822 -57.13851,31.13977 -30.23547,10.59339 31.17279,-26.85726 89.78661,-58.17321 111.31058,-93.93775 17.51831,-40.01418 6.73576,-84.36528 10.24604,-126.43425 4.95889,-36.07481 -16.98858,-67.76927 -53.83794,-74.18296 -23.09661,-12.75241 26.46785,-34.14413 35.13171,-49.69293 40.02301,-19.00879 26.55627,-65.55938 -7.32132,-82.81352 -27.79634,-5.50499 -31.4377,-28.07362 -4.89853,-40.38708 31.6184,-23.48481 49.88404,-47.94521 83.69219,-84.15958 29.97079,-28.43454 61.44037,-59.80003 58.48437,-88.17493 -54.89526,-9.3168 -102.33699,-49.572 -160.44731,-42.53779 -31.96531,-3.24457 -64.30531,29.1632 -87.07117,30.04052 23.08933,-25.04189 50.84893,-46.15712 76.94013,-68.286137 46.46906,-37.153887 112.04628,-46.149335 167.67314,-24.832444 37.70074,12.802255 74.82521,44.604951 116.9746,29.168651 34.91092,-20.157094 83.09113,5.83969 109.75444,31.6998 64.43611,55.40311 60.49431,155.957 16.37071,222.28474 -18.73981,29.18887 -44.61286,53.35389 -72.7743,73.75652 33.4876,18.70284 71.45719,34.68775 88.99021,70.98525 33.3234,54.08861 37.76009,123.39278 18.69832,182.86675 -22.9565,46.28412 -74.14074,67.52973 -111.1788,100.90838 -36.02181,19.26709 -69.01265,49.27991 -107.8711,60.39469 z m 102.10656,-68.9067 c 36.4203,-35.83425 32.08209,-91.15711 27.6402,-137.43208 -7.99037,-54.7956 -41.25874,-108.89093 -94.61923,-130.41331 -15.4034,-0.16904 -52.96543,3.74194 -22.89431,-15.93283 58.65416,-44.96116 107.47164,-110.64139 107.73486,-186.23548 1.69631,-61.372 -40.98802,-122.7884 -102.33147,-138.51815 -38.03338,-10.02007 -59.41982,29.06187 -65.8774,59.40294 -15.11104,69.07575 -7.41155,140.61369 -21.74806,209.79035 -6.28891,72.25767 6.95885,146.199 -11.03045,217.2971 -4.81482,19.90895 -55.41558,43.07713 -40.22917,52.28288 59.30082,-8.38025 116.32678,17.36077 163.25423,50.66966 17.84205,9.85426 38.8275,22.93869 60.1008,19.08892 z M 529.01472,725.55561 c -0.41892,-2.01275 1.73112,2.20203 0,0 z m -63.65307,-18.67331 0.64998,-0.14963 z m 201.54287,-61.18708 c 0.90247,-1.62591 0.90247,1.62591 0,0 z m -6.6478,-33.70418 0.27804,0.23795 z m -194.86406,-55.79955 0.27805,0.23796 z m 1.17861,-16.93227 0.27805,0.23796 z M 605.70295,437.29477 c 4.47246,-3.27486 -3.89545,3.71834 0,0 z m 21.52158,-31.7527 0.76816,0.22069 z m 29.49635,-97.56235 0.27804,0.23799 z m -10.24566,-57.49918 c 0.90248,-1.62591 0.90248,1.62591 0,0 z m -275.92814,344.70647 -0.0188,0.93892 z m -0.26019,-3.58232 c -1.43416,-2.71189 -0.32698,3.56351 0,0 z M 665.11983,416.36647 c 0.66457,-1.54343 -1.63189,0.39821 0,0 z M 639.79641,232.77861 c -0.79537,-1.5985 -0.56229,1.50292 0,0 z m -18.66138,566.84638 c 0.56242,-1.50271 0.79521,1.59852 0,0 z m -251.60287,-141.83984 0.27836,0.23782 z M 321.76731,380.16637 c 0.79527,-1.5985 0.56237,1.5028 0,0 z m -3.0513,-243.25678 0.65763,-0.15454 z"
       style="fill:#000000" />
  </g>
</svg>
