<?xml version="1.0" encoding="UTF-8" standalone="no"?>
<svg
   xmlns:dc="http://purl.org/dc/elements/1.1/"
   xmlns:cc="http://creativecommons.org/ns#"
   xmlns:rdf="http://www.w3.org/1999/02/22-rdf-syntax-ns#"
   xmlns:svg="http://www.w3.org/2000/svg"
   xmlns="http://www.w3.org/2000/svg"
   version="1.1"
   id="svg2"
   viewBox="0 0 1000 1000"
   height="1000"
   width="1000">
  <defs
     id="defs4" />
  <metadata
     id="metadata7">
    <rdf:RDF>
      <cc:Work
         rdf:about="">
        <dc:format>image/svg+xml</dc:format>
        <dc:type
           rdf:resource="http://purl.org/dc/dcmitype/StillImage" />
        <dc:title></dc:title>
      </cc:Work>
    </rdf:RDF>
  </metadata>
  <g
     transform="translate(0,-52.362126)"
     id="layer1">
    <path
       id="path3421"
       d="m 509.61409,857.26648 c -40.10654,-5.17352 -82.20003,-9.02466 -116.54549,-32.48126 -28.90396,-17.58582 -63.7261,-28.33716 -87.36719,-54.28197 -36.98492,-33.13913 -61.96139,-76.89031 -82.64646,-120.72146 -14.7348,-32.19781 -21.60331,-66.51613 -25.89982,-101.1518 -8.85627,-40.03571 -1.44061,-81.57825 0.78032,-121.86203 8.13679,-47.46749 22.75379,-94.62501 51.47576,-134.26652 17.69092,-33.38733 52.20989,-51.66764 78.61359,-76.98445 37.77617,-33.74391 76.69049,-67.25347 120.18738,-93.69321 32.11465,-20.88775 65.3143,-41.125325 95.82739,-64.585719 21.02975,-0.452111 41.77833,21.201074 65.00832,27.208792 49.51521,23.133147 101.52508,41.031787 155.12036,51.963007 34.03844,8.81003 28.84845,5.61499 58.36877,-3.21989 21.8656,-6.74402 43.30562,-12.75012 62.40855,-22.85986 25.19764,-11.505459 45.45047,-31.931943 72.30631,-40.505588 -9.82383,16.105533 -31.1642,27.269097 -47.85631,37.922188 -19.65147,11.99901 -38.16853,23.86715 -56.54128,37.36476 -23.42245,13.54722 -45.97528,28.18607 -69.6309,41.67701 -28.07167,15.73689 -58.53534,28.58805 -91.18702,32.52825 -23.91774,5.64834 -48.10249,4.47086 -75.23231,-0.91164 -23.44665,-4.35524 -46.00506,-13.06738 -68.61651,-19.82593 -18.45379,18.51223 -1.26408,65.472 -5.95632,94.83056 2.54282,30.23097 -0.52889,57.66882 1.82775,88.02802 -3.02113,42.82621 14.0959,88.73646 -9.5974,128.42668 -18.17249,24.92105 -48.2932,38.68914 -72.18827,57.87501 -19.15946,13.87958 -40.25407,21.98727 -57.63369,37.89118 -19.81173,7.53944 -33.66857,23.69827 -11.0248,39.77586 22.57749,26.14823 49.91781,47.38969 81.26086,62.4588 9.30447,6.1016 18.35413,9.39183 28.74685,16.08028 26.1674,14.66734 54.47002,25.08095 84.73122,27.52239 38.46927,4.54993 84.21555,6.16963 116.05334,-2.27158 27.23914,-6.43273 52.00127,-11.41642 78.28252,-21.27088 32.10836,-8.84646 62.97024,-22.22478 88.53235,-42.83195 23.20475,-14.04025 44.38021,-29.81756 65.54672,-47.14784 -16.26834,26.76292 -35.22343,41.24144 -61.21456,59.68182 -30.69729,22.25208 -57.39788,50.09319 -91.55274,67.78228 -23.84779,16.82526 -47.3841,33.97764 -74.05766,46.88977 -49.69755,26.1584 -106.75562,36.98851 -162.57008,44.44771 -12.58772,-0.18354 -25.20056,1.73564 -37.75955,0.51921 z M 666.40356,755.10834 c -2.16673,-1.70479 -1.39572,1.76515 0,0 z m 24.66202,-2.63783 c -3.41874,0.70139 0.64076,1.60824 0,0 z M 514.33982,730.41188 c -2.37316,-0.8679 -0.21386,1.62788 0,0 z M 375.20522,617.26863 c 16.21182,-16.09609 44.06404,-25.88663 40.47716,-53.64196 5.22089,-40.1179 -0.77903,-80.3452 0.25596,-120.60944 2.28246,-49.32827 -6.87922,-99.94072 -4.60305,-148.74218 -1.17268,-33.91536 1.99707,-72.10735 5.07228,-107.50427 0.98468,-27.52832 8.95664,-30.77472 -19.34358,-11.42531 -21.17944,13.55619 -27.99598,18.86807 -34.87049,33.62964 -34.33953,48.1718 -51.7074,107.50928 -53.81286,166.06039 -5.63837,47.4435 3.90961,95.40971 13.99171,141.72752 10.77171,27.89884 21.28464,54.51075 35.42276,81.1439 5.68804,5.31129 9.33321,17.639 17.41011,19.36171 z m 37.18227,-388.72686 c 0.76892,-1.27603 0.26084,2.04514 0,0 z"
       style="fill:#000000" />
  </g>
</svg>
