<?xml version="1.0" encoding="UTF-8" standalone="no"?>
<svg
   xmlns:dc="http://purl.org/dc/elements/1.1/"
   xmlns:cc="http://creativecommons.org/ns#"
   xmlns:rdf="http://www.w3.org/1999/02/22-rdf-syntax-ns#"
   xmlns:svg="http://www.w3.org/2000/svg"
   xmlns="http://www.w3.org/2000/svg"
   version="1.1"
   id="svg2"
   viewBox="0 0 1024 1024"
   height="1024"
   width="1024">
  <defs
     id="defs4" />
  <metadata
     id="metadata7">
    <rdf:RDF>
      <cc:Work
         rdf:about="">
        <dc:format>image/svg+xml</dc:format>
        <dc:type
           rdf:resource="http://purl.org/dc/dcmitype/StillImage" />
        <dc:title></dc:title>
      </cc:Work>
    </rdf:RDF>
  </metadata>
  <g
     transform="translate(0,-28.362161)"
     id="layer1">
    <path
       id="path3398"
       d="m 336.04168,805.26099 c -34.73865,-3.32059 -61.58591,-28.57393 -88.77383,-47.88319 -18.45959,-18.58657 -43.80504,-34.19044 -48.38473,-62.1543 -5.25322,-26.87492 -9.66418,-54.90909 -3.26287,-82.10314 4.85595,-25.23386 7.26083,-51.72818 19.72283,-74.63677 13.71324,-21.13597 27.27724,-43.19988 47.12854,-58.9029 13.09864,-12.57223 27.28337,-23.61052 39.17123,-37.14664 -9.13823,-7.16892 -21.03261,-12.3697 -30.69446,-19.42152 -8.9333,-3.94248 -16.12301,-10.73271 -25.18054,-15.81516 -23.24721,-19.39704 -40.17484,-48.70266 -40.47379,-79.56823 4.19242,-28.81992 24.66513,-52.66865 45.7171,-71.42324 16.10922,-13.7843 32.33463,-28.01516 48.31203,-42.6402 7.84345,-5.31545 35.64809,-37.95611 33.12048,-17.45355 -12.73191,12.24727 -27.61963,23.95527 -36.05075,39.91071 -12.14622,16.851 -8.74174,39.32777 0.59831,56.71349 10.92684,25.83321 34.49246,43.23165 58.82367,55.2346 22.60362,15.46996 47.34406,27.54115 69.62962,43.8328 26.31387,15.9371 52.87695,36.37726 66.09544,64.93337 8.51472,32.38176 8.37978,66.17162 11.59158,99.15803 -1.25883,19.06829 1.18291,45.36866 -0.78519,60.48026 1.89611,19.99299 4.29686,43.02318 -10.45184,57.10139 -3.68259,5.70156 10.71429,-20 0.97373,-0.26216 -56.16238,57.78861 -22.14286,20.71428 -42.23431,43.43327 -8.6511,12.6321 -17.59532,19.17227 -36.35823,37.47542 -30.52982,27.07605 -10.90209,8.06594 -30.52982,27.07605 -10.80591,10.55794 -18.01386,18.84674 -30.70638,22.75283 -5.62328,0.74633 -11.31064,1.56518 -16.99782,1.30878 z m 76.91456,-85.4979 c 17.04021,-2.98201 8.88654,-17.73391 9.45551,-40.00987 -1.40436,-49.13617 -6.19545,-89.22777 -7.97935,-134.25732 -1.23013,-19.22833 -14.18647,-34.96875 -27.98562,-47.20624 -14.5063,-14.6979 -32.69059,-23.61336 -49.00319,-35.17797 -7.09413,-4.3867 -19.16488,-12.43678 -24.28921,-13.24562 -10.93566,7.88814 -14.73144,22.25355 -21.77878,33.46138 -8.88195,26.44127 -11.36056,54.4086 -15.87625,81.79959 0.51632,23.28429 1.54453,47.84807 10.96536,69.36719 10.94186,19.053 32.37548,31.45857 46.39211,45.87686 24.95857,15.729 48.71821,40.12432 80.09942,39.392 z m 3.43661,-149.40093 c -0.9581,-1.34529 -0.9581,1.34529 0,0 z"
       style="fill:#000000" />
  </g>
</svg>
