<?xml version="1.0" encoding="UTF-8" standalone="no"?>
<!-- Created with Inkscape (http://www.inkscape.org/) -->

<svg
   xmlns:dc="http://purl.org/dc/elements/1.1/"
   xmlns:cc="http://creativecommons.org/ns#"
   xmlns:rdf="http://www.w3.org/1999/02/22-rdf-syntax-ns#"
   xmlns:svg="http://www.w3.org/2000/svg"
   xmlns="http://www.w3.org/2000/svg"
   xmlns:sodipodi="http://sodipodi.sourceforge.net/DTD/sodipodi-0.dtd"
   xmlns:inkscape="http://www.inkscape.org/namespaces/inkscape"
   width="1000"
   height="1000"
   viewBox="0 0 999.99999 999.99999"
   id="svg2"
   version="1.1"
   inkscape:version="0.91 r13725"
   sodipodi:docname="D.svg">
  <defs
     id="defs4" />
  <sodipodi:namedview
     id="base"
     pagecolor="#ffffff"
     bordercolor="#666666"
     borderopacity="1.0"
     inkscape:pageopacity="0.0"
     inkscape:pageshadow="2"
     inkscape:zoom="0.63765625"
     inkscape:cx="679.36956"
     inkscape:cy="563.76385"
     inkscape:document-units="px"
     inkscape:current-layer="layer1"
     showgrid="false"
     units="px"
     showguides="true"
     inkscape:guide-bbox="true"
     inkscape:window-width="1440"
     inkscape:window-height="785"
     inkscape:window-x="256"
     inkscape:window-y="186"
     inkscape:window-maximized="0">
    <sodipodi:guide
       position="28.571428,200"
       orientation="0,1"
       id="guide3371" />
  </sodipodi:namedview>
  <metadata
     id="metadata7">
    <rdf:RDF>
      <cc:Work
         rdf:about="">
        <dc:format>image/svg+xml</dc:format>
        <dc:type
           rdf:resource="http://purl.org/dc/dcmitype/StillImage" />
        <dc:title></dc:title>
      </cc:Work>
    </rdf:RDF>
  </metadata>
  <g
     inkscape:label="Layer 1"
     inkscape:groupmode="layer"
     id="layer1"
     transform="translate(0,-52.362371)">
    <path
       style="fill:#000000"
       d="m 503.60423,852.52385 c -55.87996,0.40732 -99.72096,-35.99997 -150.94222,-50.97471 -31.07255,-7.97912 -54.03125,5.37303 -88.29101,25.88104 -73.60916,55.57179 -37.42686,20.95499 -14.52645,-4.98441 32.32313,-30.74103 73.69456,-60.8664 87.11638,-104.13006 1.9574,-36.24275 -3.83153,-72.56633 -2.52089,-108.95303 -5.5733,-69.5368 -5.75131,-139.84561 4.49276,-208.94883 5.45955,-26.46659 7.62886,-56.44972 31.39758,-75.11788 15.39998,-18.38671 45.62978,-30.98163 55.53698,-48.92576 -18.74753,-10.89147 -32.7925,-15.19365 -49.30681,-27.19418 -28.99825,-22.59353 -57.22043,-58.55879 -46.81099,-96.05074 12.86978,-30.41346 47.71024,-42.76092 71.13482,-64.482956 10.52646,-7.84579 64.8876,-49.766722 40.36094,-15.495756 -15.09308,32.495292 7.23885,68.166592 31.11213,90.414682 28.23252,25.43944 66.41359,37.16955 100.25784,54.28247 35.88523,20.14035 68.77946,44.79807 96.63849,74.64707 47.84557,48.16512 90.67523,101.57344 116.66833,163.51101 11.33881,27.31175 14.16737,56.98736 19.82056,85.57109 1.57409,44.91524 -5.69436,89.00656 -27.4734,128.97284 -8.09923,14.62409 -23.44413,29.5097 -34.02953,44.24969 -16.52498,14.79865 -30.96294,28.56289 -50.92491,40.10794 -20.44132,15.12245 -38.90579,28.17134 -60.55887,41.17283 -18.98063,12.03545 -40.30138,26.04526 -60.10965,37.16993 -29.63658,15.8883 -44.86186,19.71562 -69.04208,19.27772 z m 102.47301,-85.77497 c 23.60304,-1.74816 28.70802,-3.74256 57.32483,-18.69914 16.14109,-17.54933 22.04283,-18.73765 23.18024,-38.4647 1.7022,-3.9194 2.73233,-24.11652 2.73233,-24.11652 -0.78909,-19.09593 7.61471,-52.12284 2.97135,-76.8534 -6.13734,-42.52875 -14.66527,-85.45887 -38.60575,-122.43314 -27.50946,-51.95901 -67.93786,-96.7699 -110.904,-138.15427 -23.97133,-22.81149 -51.33616,-41.85768 -81.65942,-56.5773 -21.50318,-10.99841 -18.35,39.49111 -19.35855,57.26239 -2.86782,66.30308 -2.19799,132.49114 -1.48947,198.10423 1.58376,36.61035 -0.51576,61.73429 -1.20038,96.9473 -7.89495,22.93358 -27.52166,41.74514 -41.03949,60.33903 34.05559,0.20092 64.01226,12.32935 96.63061,25.39308 38.48935,14.26593 70.06759,25.04174 111.4177,37.25244 z"
       id="path3515"
       inkscape:connector-curvature="0"
       sodipodi:nodetypes="cccccccccccccccccccccccccccccccccccccc" />
  </g>
</svg>
