<?xml version="1.0" encoding="UTF-8" standalone="no"?>
<svg
   xmlns:dc="http://purl.org/dc/elements/1.1/"
   xmlns:cc="http://creativecommons.org/ns#"
   xmlns:rdf="http://www.w3.org/1999/02/22-rdf-syntax-ns#"
   xmlns:svg="http://www.w3.org/2000/svg"
   xmlns="http://www.w3.org/2000/svg"
   version="1.1"
   id="svg2"
   viewBox="0 0 0 1052.3622"
   height="1000"
   width="1000">
  <defs
     id="defs4" />
  <metadata
     id="metadata7">
    <rdf:RDF>
      <cc:Work
         rdf:about="">
        <dc:format>image/svg+xml</dc:format>
        <dc:type
           rdf:resource="http://purl.org/dc/dcmitype/StillImage" />
        <dc:title></dc:title>
      </cc:Work>
    </rdf:RDF>
  </metadata>
  <g
     transform="translate(0,-52.362116)"
     id="layer1">
    <path
       id="path3400"
       d="m 434.354,905.39696 c 6.28844,-3.41667 4.09616,1.06721 0,0 z m 9.73704,-67.12249 C 409.25522,831.39862 370.4514,835.4369 340.14152,812.72451 287.40743,783.62889 236.72476,744.13653 211.71562,687.89497 179.05853,635.45066 164.46005,572.1828 165.48497,510.43512 c -0.12763,-47.28455 6.68566,-95.15573 19.57313,-140.59533 12.70626,-43.72999 34.62267,-84.53879 65.1727,-118.03462 24.14675,-20.16098 46.02032,-43.08325 71.7369,-61.34082 16.78171,-16.70851 32.43829,-33.62006 53.56724,-52.08582 18.45751,-19.09277 35.32443,-38.06505 58.05893,-56.744088 26.99819,-24.19077 18.10147,-39.829265 53.60878,-18.017018 31.76134,20.704362 62.83471,45.319846 95.83883,63.931296 38.16342,13.35267 79.92789,28.01953 121.58127,18.9959 32.10581,-3.05051 66.61687,-5.99707 90.11707,-30.72711 17.1686,-12.3895 46.07408,-45.429711 63.77563,-55.584275 3.17092,16.827057 -42.12285,50.515175 -55.81291,63.849865 -17.35729,12.73154 -34.94616,30.28449 -51.80713,41.73646 -19.9572,19.26795 -43.50252,37.1413 -67.0626,52.46387 -35.8832,21.19778 -78.3934,23.59896 -118.88204,26.83016 -19.25342,0.47933 -35.49359,-6.54823 -52.38846,-9.67436 -36.75628,-20.00672 -14.56879,29.25509 -15.40095,49.43811 14.72077,26.1919 -9.56935,87.81421 34.87732,83.055 51.11124,7.34769 97.80993,30.75111 147.97742,41.96856 35.29792,2.4869 70.75609,-3.39601 102.39578,-18.95412 17.89943,-8.05497 65.04828,-50.01478 81.42514,-59.68985 -9.28832,21.01872 -66.84694,57.23285 -82.46437,72.93351 -18.764,12.55981 -37.76849,24.63951 -55.41106,39.6233 -20.62473,9.98009 -37.61076,26.22212 -59.4343,33.85265 -31.55593,17.17593 -68.06528,21.89682 -103.91094,18.66085 -18.83563,-2.40588 -28.79482,-9.1021 -43.09814,-8.08153 -14.143,19.17305 -24.22077,30.96586 -35.68993,47.04319 -22.35689,23.54564 -46.52839,44.50636 -68.8646,68.06634 -11.77657,18.55753 -45.94773,32.86922 -47.54105,52.36728 28.25965,27.51477 64.29022,46.95457 99.03687,65.8147 24.92164,9.27324 54.32339,8.64543 81.31743,12.46587 25.90166,1.9088 48.20445,-4.94329 73.68576,-5.08147 20.95238,-4.57264 42.90136,-9.61656 65.00133,-15.40033 10.76141,-4.9808 27.14411,-6.78786 35.19675,-11.51436 15.17446,-5.54549 34.61615,-14.26438 50.59452,-22.52545 17.18054,-12.45421 29.57895,-22.80134 48.95247,-38.97009 17.35592,-13.13027 34.88714,-29.17742 53.28715,-41.98319 12.52858,9.02278 -22.68148,25.97715 -30.53204,36.48057 -35.9678,27.0777 -67.60921,59.26657 -102.47572,87.68145 -35.06159,31.51149 -72.66119,61.08511 -117.39209,77.4902 -56.90185,22.41336 -118.28557,37.95761 -180.00402,38.09405 z M 354.51853,637.8811 c 18.7851,-5.48251 30.58197,-19.43778 43.75991,-32.85652 19.91166,-21.19941 14.47262,-53.7519 13.9763,-82.05935 -0.393,-29.04685 2.09214,-78.54496 -40.69748,-67.41873 -32.7629,-1.15253 -65.42386,11.8304 -90.66294,32.01279 8.47982,47.50689 29.66724,92.64686 55.85505,133.15337 5.76286,3.82599 10.3802,17.97679 17.76916,17.16844 z M 280.85403,462.235 c 23.29871,-17.89474 45.55842,-37.17462 70.82474,-52.18455 12.67462,-12.65601 45.18786,-14.87225 33.98763,-39.12819 -11.14429,-66.8587 -16.72438,-134.63235 -22.89608,-201.97053 -21.54779,18.30443 -37.13707,43.60324 -49.50708,68.80712 -22.50163,38.74489 -29.8,83.53696 -34.68829,127.56438 -2.84602,29.1788 -10.80384,76.31217 2.27908,96.91177 z"
       style="fill:#000000" />
  </g>
</svg>
