<?xml version="1.0" encoding="UTF-8" standalone="no"?>
<svg
   xmlns:dc="http://purl.org/dc/elements/1.1/"
   xmlns:cc="http://creativecommons.org/ns#"
   xmlns:rdf="http://www.w3.org/1999/02/22-rdf-syntax-ns#"
   xmlns:svg="http://www.w3.org/2000/svg"
   xmlns="http://www.w3.org/2000/svg"
   version="1.1"
   id="svg2"
   viewBox="0 0 1024 1024"
   height="1024"
   width="1024">
  <defs
     id="defs4" />
  <metadata
     id="metadata7">
    <rdf:RDF>
      <cc:Work
         rdf:about="">
        <dc:format>image/svg+xml</dc:format>
        <dc:type
           rdf:resource="http://purl.org/dc/dcmitype/StillImage" />
        <dc:title></dc:title>
      </cc:Work>
    </rdf:RDF>
  </metadata>
  <g
     transform="translate(0,-28.362161)"
     id="layer1">
    <path
       id="path3401"
       d="m 374.67171,1044.8333 c -1.32161,-34.0006 -1.54913,-66.95117 0.64481,-102.11155 2.33833,-42.69875 10.24226,-85.53798 13.69414,-127.31594 -0.63488,-23.0337 -0.98069,-17.7394 -1.06438,-73.59091 3.14159,-96.02014 4.45872,-98.46205 6.65208,-156.20602 0.66452,-20.0572 -0.0331,-26.6839 0.14821,-40.01641 -4.83337,-82.12858 -13.4707,-164.82397 -15.34197,-246.77505 -27.9986,-7.43866 -64.34793,-7.91247 -95.32117,-3.95504 -27.27817,-3.92699 35.1785,-22.49462 47.04128,-29.49091 17.38426,-6.35609 32.7557,-16.54664 50.53891,-21.85297 2.30152,0.55881 12.77454,-18.5081 15.7144,-28.51129 15.154,-44.47004 63.64953,-67.09974 100.13392,-96.75259 24.02112,-19.608139 50.03552,-36.72424 78.41619,-50.415081 53.1097,-27.385477 15.95708,-7.41382 61.404,-32.804542 7.69171,-4.748459 16.21157,-1.002094 42.39539,5.978615 28.33237,6.676998 52.88178,18.479663 78.33341,32.680907 24.91468,11.742023 7.36695,27.602091 -8.20859,47.735781 -9.50889,16.64915 -13.55982,21.82497 -29.62561,50.29076 -22.00403,27.07508 -50.15195,69.14251 -39.9667,20.11151 3.19009,-37.2284 -27.64642,-70.37277 -67.31805,-79.33541 -26.65692,-7.29396 -64.14506,-21.519163 -88.66999,-5.22672 -28.94249,23.38026 -39.88828,59.02376 -46.99486,92.00666 -5.14025,26.85735 -12.98986,50.75978 33.40133,47.00646 42.73768,-1.21173 71.37448,0.40176 108.34504,-1.29343 24.483,1.36687 49.77417,-0.76771 72.92193,-4.14139 24.93972,6.40967 -10.20491,10.53922 -29.88201,17.13538 -26.40855,5.68773 -37.36195,15.31174 -57.76651,21.05213 -26.28477,6.97847 -33.04581,6.09443 -66.21267,7.99728 -25.88127,-2.11972 -80.74317,-7.74956 -40.67599,21.37004 46.23061,66.87072 62.21464,148.21473 55.77983,225.86836 -8.47569,52.03226 -34.95184,99.10082 -54.07859,147.87533 -14.07411,41.00191 -27.59173,82.64955 -41.71575,123.67678 -11.36977,22.24526 -12.24086,50.28021 -26.34066,73.30177 -11.20733,27.17276 -34.97932,50.41142 -41.6275,79.19331 -7.93425,25.53685 4.94513,71.07978 -14.75387,86.51418 z m 19.86388,-105.68716 c -1.52742,-1.95383 -1.52742,1.95385 0,0 z m 43.70158,-77.4305 c -1.52738,-1.95386 -1.52744,1.95384 0,0 z"
       style="fill:#000000" />
  </g>
</svg>
